<svg width="28" height="28" viewBox="0 0 28 28" fill="none" xmlns="http://www.w3.org/2000/svg">
<path d="M22.75 25.6666C23.7165 25.6666 24.5 24.8831 24.5 23.9166C24.5 22.9501 23.7165 22.1666 22.75 22.1666C21.7835 22.1666 21 22.9501 21 23.9166C21 24.8831 21.7835 25.6666 22.75 25.6666Z" fill="#1084FE" stroke="#1084FE" stroke-width="1.75" stroke-linecap="round" stroke-linejoin="round"/>
<path d="M11.0833 25.6666C12.0498 25.6666 12.8333 24.8831 12.8333 23.9166C12.8333 22.9501 12.0498 22.1666 11.0833 22.1666C10.1168 22.1666 9.33331 22.9501 9.33331 23.9166C9.33331 24.8831 10.1168 25.6666 11.0833 25.6666Z" fill="#1084FE" stroke="#1084FE" stroke-width="1.75" stroke-linecap="round" stroke-linejoin="round"/>
<path d="M5.83331 4.66671H25.6666L23.3333 17.5H8.16665L5.83331 4.66671ZM5.83331 4.66671C5.63887 3.88893 4.66665 2.33337 2.33331 2.33337" stroke="#1084FE" stroke-width="1.75" stroke-linecap="round" stroke-linejoin="round"/>
<path d="M23.3334 17.5H8.16669H6.10258C4.0209 17.5 2.91669 18.4115 2.91669 19.8333C2.91669 21.2552 4.0209 22.1667 6.10258 22.1667H22.75" stroke="#1084FE" stroke-width="1.75" stroke-linecap="round" stroke-linejoin="round"/>
</svg>
