<svg width="163" height="31" viewBox="0 0 163 31" fill="none" xmlns="http://www.w3.org/2000/svg">
<g clip-path="url(#clip0_9_102)">
<path d="M43.6315 24.2863C42.4716 24.2863 41.4159 24.0445 40.4654 23.5611C39.5306 23.0777 38.7894 22.3768 38.2417 21.4583C37.6939 20.5399 37.4199 19.428 37.4199 18.1228V17.7845C37.4199 16.4793 37.6939 15.3674 38.2417 14.4489C38.7894 13.5305 39.5306 12.8295 40.4654 12.3461C41.4159 11.8627 42.4716 11.6211 43.6315 11.6211C44.7756 11.6211 45.7586 11.8224 46.5806 12.2253C47.4021 12.6281 48.063 13.184 48.5624 13.893C49.0781 14.5859 49.4165 15.3755 49.5775 16.2617L46.6288 16.8902C46.5643 16.4068 46.4195 15.9717 46.1935 15.585C45.968 15.1982 45.6458 14.8921 45.2267 14.6665C44.8243 14.4409 44.3163 14.3281 43.7041 14.3281C43.0919 14.3281 42.5361 14.4651 42.0363 14.739C41.5531 14.9968 41.1664 15.3916 40.8763 15.9233C40.6025 16.439 40.4654 17.0754 40.4654 17.8328V18.0745C40.4654 18.8318 40.6025 19.4764 40.8763 20.0081C41.1664 20.5237 41.5531 20.9185 42.0363 21.1925C42.5361 21.4503 43.0919 21.5792 43.7041 21.5792C44.6226 21.5792 45.3156 21.3455 45.7829 20.8783C46.2661 20.3949 46.5724 19.7664 46.7015 18.993L49.6501 19.6939C49.4408 20.5479 49.0781 21.3294 48.5624 22.0384C48.063 22.7313 47.4021 23.2791 46.5806 23.682C45.7586 24.0848 44.7756 24.2863 43.6315 24.2863ZM57.383 24.2863C56.1906 24.2863 55.1191 24.0445 54.1686 23.5611C53.2176 23.0777 52.4683 22.3768 51.9205 21.4583C51.3728 20.5399 51.0986 19.4361 51.0986 18.147V17.7603C51.0986 16.4712 51.3728 15.3674 51.9205 14.4489C52.4683 13.5305 53.2176 12.8295 54.1686 12.3461C55.1191 11.8627 56.1906 11.6211 57.383 11.6211C58.5753 11.6211 59.6468 11.8627 60.5978 12.3461C61.5484 12.8295 62.2977 13.5305 62.8454 14.4489C63.3935 15.3674 63.6674 16.4712 63.6674 17.7603V18.147C63.6674 19.4361 63.3935 20.5399 62.8454 21.4583C62.2977 22.3768 61.5484 23.0777 60.5978 23.5611C59.6468 24.0445 58.5753 24.2863 57.383 24.2863ZM57.383 21.5792C58.3177 21.5792 59.091 21.2811 59.7032 20.6849C60.3158 20.0726 60.6217 19.2024 60.6217 18.0745V17.8328C60.6217 16.7048 60.3158 15.8428 59.7032 15.2466C59.1072 14.6343 58.3336 14.3281 57.383 14.3281C56.4486 14.3281 55.675 14.6343 55.0627 15.2466C54.4505 15.8428 54.1442 16.7048 54.1442 17.8328V18.0745C54.1442 19.2024 54.4505 20.0726 55.0627 20.6849C55.675 21.2811 56.4486 21.5792 57.383 21.5792ZM70.8289 24.2863C69.8784 24.2863 68.9842 24.0526 68.146 23.5853C67.3244 23.1019 66.6636 22.401 66.1641 21.4825C65.6647 20.564 65.4148 19.4522 65.4148 18.147V17.7603C65.4148 16.4551 65.6647 15.3432 66.1641 14.4248C66.6636 13.5063 67.3244 12.8134 68.146 12.3461C68.968 11.8627 69.8621 11.6211 70.8289 11.6211C71.5543 11.6211 72.1584 11.7097 72.642 11.8869C73.1414 12.0481 73.5443 12.2575 73.8502 12.5153C74.1565 12.7731 74.3902 13.0471 74.5513 13.3371H74.9862V7.0287H78.0318V23.9479H75.0349V22.4977H74.5996C74.3257 22.9488 73.8985 23.3597 73.3187 23.7303C72.7548 24.1009 71.9247 24.2863 70.8289 24.2863ZM71.7475 21.6275C72.6822 21.6275 73.4636 21.3294 74.092 20.7332C74.7205 20.1209 75.0349 19.2347 75.0349 18.0745V17.8328C75.0349 16.6726 74.7205 15.7944 74.092 15.1982C73.4798 14.5859 72.6984 14.2798 71.7475 14.2798C70.8131 14.2798 70.0313 14.5859 69.4029 15.1982C68.7744 15.7944 68.4604 16.6726 68.4604 17.8328V18.0745C68.4604 19.2347 68.7744 20.1209 69.4029 20.7332C70.0313 21.3294 70.8131 21.6275 71.7475 21.6275ZM86.3873 24.2863C85.195 24.2863 84.1397 24.0365 83.2212 23.537C82.3185 23.0214 81.6097 22.3043 81.0941 21.3858C80.5946 20.4512 80.3447 19.3555 80.3447 18.0987V17.8086C80.3447 16.5518 80.5946 15.4641 81.0941 14.5456C81.5935 13.611 82.2946 12.894 83.1968 12.3945C84.0991 11.8788 85.1467 11.6211 86.339 11.6211C87.5152 11.6211 88.5384 11.8869 89.4086 12.4187C90.2788 12.9343 90.9556 13.6594 91.4388 14.594C91.9224 15.5125 92.1642 16.584 92.1642 17.8086V18.8479H83.4386C83.4707 19.6697 83.777 20.3385 84.3572 20.8541C84.9373 21.3697 85.6461 21.6275 86.4839 21.6275C87.3379 21.6275 87.9663 21.4422 88.3692 21.0716C88.7721 20.701 89.0784 20.2901 89.2877 19.8389L91.7771 21.1441C91.5516 21.5631 91.2213 22.0223 90.7864 22.5218C90.3673 23.0052 89.8034 23.4242 89.0946 23.7787C88.3854 24.117 87.4831 24.2863 86.3873 24.2863ZM83.4626 16.5759H89.0703C89.0057 15.8831 88.7238 15.3271 88.2244 14.9082C87.7408 14.4892 87.1042 14.2798 86.3147 14.2798C85.4931 14.2798 84.8404 14.4892 84.3572 14.9082C83.8736 15.3271 83.5754 15.8831 83.4626 16.5759ZM99.4188 24.2863C97.9039 24.2863 96.647 23.9479 95.6482 23.2711C94.6489 22.5943 94.0367 21.5711 93.8112 20.2015L96.1314 19.6456C96.2604 20.3062 96.4779 20.8299 96.7842 21.2166C97.0905 21.6034 97.469 21.8773 97.9202 22.0384C98.3875 22.1996 98.8869 22.2801 99.4188 22.2801C100.208 22.2801 100.812 22.1271 101.232 21.8209C101.666 21.5147 101.884 21.1199 101.884 20.6365C101.884 20.1531 101.683 19.7986 101.28 19.5731C100.877 19.3474 100.281 19.1622 99.4911 19.0171L98.6695 18.8721C97.8638 18.7271 97.1306 18.5176 96.4698 18.2437C95.8093 17.9697 95.2855 17.5911 94.8989 17.1077C94.5122 16.6243 94.3187 16.0039 94.3187 15.2466C94.3187 14.1186 94.7378 13.2485 95.5756 12.6362C96.4134 12.0078 97.5254 11.6936 98.9113 11.6936C100.248 11.6936 101.344 11.9997 102.198 12.612C103.069 13.2082 103.632 14.0219 103.89 15.0532L101.57 15.7058C101.425 14.9807 101.119 14.4731 100.651 14.1831C100.184 13.8769 99.6038 13.7239 98.9113 13.7239C98.2342 13.7239 97.7027 13.8528 97.3161 14.1106C96.929 14.3523 96.7359 14.6987 96.7359 15.1499C96.7359 15.6333 96.9213 15.9878 97.2917 16.2134C97.6784 16.439 98.194 16.6082 98.8387 16.7209L99.6846 16.866C100.539 17.011 101.32 17.2124 102.029 17.4702C102.738 17.7281 103.294 18.0987 103.697 18.5821C104.116 19.0655 104.325 19.71 104.325 20.5157C104.325 21.7081 103.882 22.6346 102.996 23.2953C102.109 23.9559 100.917 24.2863 99.4188 24.2863ZM107.235 23.9479V7.0287H109.725V13.7239H110.112C110.273 13.4177 110.498 13.1196 110.788 12.8295C111.094 12.5395 111.489 12.3058 111.973 12.1286C112.472 11.9352 113.1 11.8386 113.858 11.8386C114.76 11.8386 115.558 12.04 116.251 12.4428C116.959 12.8457 117.516 13.4177 117.919 14.1589C118.321 14.884 118.523 15.7622 118.523 16.7935V23.9479H116.033V16.9868C116.033 15.9556 115.775 15.1982 115.26 14.7148C114.744 14.2153 114.035 13.9655 113.133 13.9655C112.102 13.9655 111.271 14.3039 110.643 14.9807C110.031 15.6575 109.725 16.6404 109.725 17.9295V23.9479H107.235ZM125.804 24.2863C124.95 24.2863 124.184 24.1412 123.507 23.8512C122.847 23.5611 122.315 23.1341 121.912 22.5702C121.525 22.0062 121.332 21.3214 121.332 20.5157C121.332 19.6939 121.525 19.0171 121.912 18.4854C122.315 17.9375 122.855 17.5266 123.532 17.2527C124.225 16.9788 125.006 16.8418 125.876 16.8418H129.502V16.0684C129.502 15.3755 129.292 14.8196 128.873 14.4006C128.454 13.9817 127.81 13.7722 126.94 13.7722C126.086 13.7722 125.433 13.9736 124.982 14.3764C124.53 14.7793 124.233 15.303 124.087 15.9475L121.767 15.1982C121.96 14.5537 122.267 13.9736 122.686 13.458C123.121 12.9262 123.693 12.4992 124.402 12.177C125.111 11.8547 125.965 11.6936 126.964 11.6936C128.51 11.6936 129.727 12.0883 130.614 12.8779C131.5 13.6674 131.943 14.7873 131.943 16.2375V21.1441C131.943 21.6275 132.168 21.8692 132.619 21.8692H133.635V23.9479H131.774C131.21 23.9479 130.75 23.8028 130.396 23.5128C130.042 23.2227 129.864 22.828 129.864 22.3285V22.256H129.502C129.373 22.4977 129.179 22.7796 128.921 23.1019C128.664 23.4242 128.285 23.7061 127.785 23.9479C127.286 24.1734 126.626 24.2863 125.804 24.2863ZM126.166 22.2318C127.165 22.2318 127.971 21.9498 128.583 21.3858C129.195 20.8058 129.502 20.0162 129.502 19.0171V18.7754H126.021C125.361 18.7754 124.829 18.9204 124.426 19.2105C124.023 19.4844 123.822 19.8953 123.822 20.4432C123.822 20.991 124.031 21.4261 124.45 21.7484C124.869 22.0706 125.441 22.2318 126.166 22.2318ZM140.986 24.2863C140.003 24.2863 139.093 24.0445 138.255 23.5611C137.417 23.0777 136.74 22.3848 136.224 21.4825C135.725 20.564 135.475 19.4603 135.475 18.1712V17.8086C135.475 16.5357 135.725 15.4399 136.224 14.5215C136.724 13.603 137.393 12.9021 138.231 12.4187C139.068 11.9352 139.987 11.6936 140.986 11.6936C141.759 11.6936 142.404 11.7902 142.92 11.9836C143.452 12.177 143.887 12.4267 144.225 12.7329C144.563 13.0229 144.821 13.3291 144.998 13.6513H145.385V7.0287H147.875V23.9479H145.433V22.256H145.047C144.741 22.7716 144.273 23.2389 143.645 23.6578C143.033 24.0768 142.146 24.2863 140.986 24.2863ZM141.687 22.1109C142.767 22.1109 143.653 21.7645 144.346 21.0716C145.055 20.3787 145.409 19.3877 145.409 18.0987V17.8811C145.409 16.6082 145.063 15.6252 144.37 14.9323C143.677 14.2395 142.783 13.893 141.687 13.893C140.623 13.893 139.737 14.2395 139.028 14.9323C138.335 15.6252 137.989 16.6082 137.989 17.8811V18.0987C137.989 19.3877 138.335 20.3787 139.028 21.0716C139.737 21.7645 140.623 22.1109 141.687 22.1109ZM157.002 24.2863C155.793 24.2863 154.738 24.0365 153.836 23.537C152.933 23.0214 152.224 22.3043 151.709 21.3858C151.209 20.4512 150.959 19.3716 150.959 18.147V17.857C150.959 16.6162 151.209 15.5366 151.709 14.6182C152.208 13.6836 152.901 12.9665 153.787 12.467C154.69 11.9514 155.729 11.6936 156.905 11.6936C158.049 11.6936 159.048 11.9514 159.902 12.467C160.772 12.9665 161.449 13.6674 161.933 14.5698C162.416 15.4722 162.658 16.5276 162.658 17.7361V18.6788H153.497C153.529 19.7261 153.876 20.564 154.536 21.1925C155.213 21.8048 156.051 22.1109 157.05 22.1109C157.985 22.1109 158.686 21.9014 159.153 21.4825C159.637 21.0635 160.007 20.5801 160.265 20.0323L162.319 21.0958C162.094 21.5469 161.764 22.0223 161.328 22.5218C160.91 23.0214 160.353 23.4403 159.66 23.7787C158.968 24.117 158.081 24.2863 157.002 24.2863ZM153.521 16.7693H160.12C160.055 15.8669 159.733 15.166 159.153 14.6665C158.573 14.1509 157.816 13.893 156.881 13.893C155.947 13.893 155.181 14.1509 154.585 14.6665C154.005 15.166 153.65 15.8669 153.521 16.7693Z" fill="black"/>
<path d="M10.1515 20.7145L0 16.5928V14.1274L10.1515 10.0427V12.073L1.95779 15.2151V15.5051L10.1515 18.6473V20.7145Z" fill="#0056D2"/>
<path d="M20.8578 20.7145L31.0093 16.6348V14.1695L20.8578 10.0847V12.115L29.0515 15.2571V15.5472L20.8578 18.6893V20.7145Z" fill="#0056D2"/>
<path d="M20.8248 20.7131L16.7042 30.8646H14.2388L10.1467 20.7131H12.1843L15.3265 28.9069H15.6165L18.7587 20.7131H20.8248Z" fill="#0056D2"/>
<path d="M20.8577 10.0427L16.5927 0H14.1273L10.1512 10.0427H12.167L15.215 1.95779H15.505L18.5402 10.0427H20.8577Z" fill="#0056D2"/>
</g>
<defs>
<clipPath id="clip0_9_102">
<rect width="163" height="30.9005" fill="white"/>
</clipPath>
</defs>
</svg>
