<svg width="28" height="28" viewBox="0 0 28 28" fill="none" xmlns="http://www.w3.org/2000/svg">
<path d="M23.8993 3.5H19.2423L19.8256 9.33333C19.8256 9.33333 20.9923 10.5 22.7423 10.5C23.9988 10.5 24.8544 9.89853 25.237 9.55932C25.3895 9.42412 25.4453 9.21773 25.4118 9.01671L24.5898 4.08492C24.5335 3.74739 24.2415 3.5 23.8993 3.5Z" stroke="#1084FE" stroke-width="1.75"/>
<path d="M19.2423 3.5L19.8256 9.33333C19.8256 9.33333 18.659 10.5 16.909 10.5C15.159 10.5 13.9923 9.33333 13.9923 9.33333V3.5H19.2423Z" stroke="#1084FE" stroke-width="1.75"/>
<path d="M13.9923 3.5V9.33333C13.9923 9.33333 12.8257 10.5 11.0757 10.5C9.32566 10.5 8.159 9.33333 8.159 9.33333L8.74233 3.5H13.9923Z" stroke="#1084FE" stroke-width="1.75"/>
<path d="M8.74212 3.5H4.08511C3.74292 3.5 3.45089 3.74739 3.39463 4.08492L2.57267 9.01672C2.53916 9.21773 2.59497 9.42412 2.74745 9.55931C3.13003 9.89852 3.98556 10.5 5.2421 10.5C6.9921 10.5 8.15879 9.33333 8.15879 9.33333L8.74212 3.5Z" stroke="#1084FE" stroke-width="1.75"/>
<path d="M3.5 10.5V22.1667C3.5 23.4553 4.54467 24.5 5.83333 24.5H22.1667C23.4553 24.5 24.5 23.4553 24.5 22.1667V10.5" stroke="#1084FE" stroke-width="1.75"/>
<path d="M17.3055 24.5V17.5C17.3055 16.2113 16.2608 15.1666 14.9721 15.1666H12.6388C11.3501 15.1666 10.3055 16.2113 10.3055 17.5V24.5" stroke="#1084FE" stroke-width="1.75" stroke-miterlimit="16"/>
</svg>
